<svg version="1.1" id="Layer_1" xmlns="http://www.w3.org/2000/svg" xmlns:xlink="http://www.w3.org/1999/xlink" x="0px" y="0px"
	 width="100%" viewBox="0 0 512 512" enable-background="new 0 0 512 512" xml:space="preserve">
<path fill="#42B7A1" opacity="1.000000" stroke="none" 
	d="
M0.999998,289.000000 
	C1.000000,267.645782 1.000000,246.291550 1.396063,224.664642 
	C2.172027,223.883087 2.777990,223.422501 2.898620,222.858170 
	C5.620980,210.122406 7.832860,197.257843 11.069472,184.656021 
	C16.864582,162.092636 26.820774,141.267670 39.011169,121.472145 
	C51.892807,100.554138 67.943459,82.279327 85.934608,65.699745 
	C91.932480,60.172466 98.691025,55.470612 105.456482,50.512527 
	C107.624992,51.630947 109.438850,52.628258 111.636406,53.836533 
	C110.087456,55.165482 109.080200,55.991543 108.114723,56.863842 
	C96.626755,67.243073 84.750145,77.231972 73.782532,88.135078 
	C64.463142,97.399658 56.055862,107.650063 51.961838,120.571541 
	C47.735828,133.909576 54.628433,146.491577 68.132111,149.971680 
	C78.525909,152.650345 88.580345,150.422531 98.658310,147.539200 
	C98.797516,147.742493 99.123260,148.112244 98.989914,148.419586 
	C91.230515,157.713669 83.249023,166.427261 76.075562,175.761826 
	C68.477776,185.648529 61.996979,196.307144 59.411015,208.808990 
	C56.046112,225.076660 68.146667,236.064484 83.856323,230.889008 
	C87.609306,229.652588 91.133400,227.721359 94.786865,226.560455 
	C94.836143,230.632889 94.861320,234.254562 94.450768,237.934708 
	C92.519073,238.016373 91.020340,237.988663 89.527580,238.070358 
	C65.972382,239.359451 47.924416,261.812500 51.728294,285.080231 
	C55.525200,308.305328 74.598106,322.299469 99.368774,319.791901 
	C104.144165,318.480286 108.537788,317.131622 113.126076,315.723175 
	C113.699005,316.798279 114.294884,317.771393 114.756912,318.804382 
	C132.541809,358.568085 161.714615,386.409180 202.225967,402.386383 
	C212.725113,406.527161 212.725891,406.525177 211.611526,417.827637 
	C210.842194,417.947235 210.406113,418.036713 209.519806,418.075073 
	C203.388351,418.734863 197.707169,419.445770 191.629028,420.125610 
	C176.260147,423.122864 162.274384,428.653259 149.418259,436.898071 
	C135.732666,445.674835 123.578476,456.108124 114.384598,469.989502 
	C94.149139,457.056091 77.112183,440.943298 61.569458,423.114380 
	C49.248722,408.981323 38.758327,393.571381 30.099094,377.025818 
	C15.924206,349.941254 6.206803,321.345734 2.906749,290.770081 
	C2.836481,290.119019 1.660279,289.587372 0.999998,289.000000 
z"/>
<path fill="#43B7A1" opacity="1.000000" stroke="none" 
	d="
M513.000000,225.000000 
	C513.000000,246.020889 513.000000,267.041779 512.597534,288.342896 
	C511.800018,289.465210 511.194214,290.271271 511.043060,291.155090 
	C509.804901,298.393982 509.009613,305.727509 507.407379,312.881714 
	C501.858917,337.656342 493.085938,361.206085 480.372925,383.276947 
	C470.535431,400.355652 459.373810,416.448975 445.716858,430.665070 
	C437.919220,438.781982 429.838501,446.695282 421.283081,453.994446 
	C414.379333,459.884430 406.573517,464.717102 399.080414,469.683197 
	C390.168427,460.298645 381.343933,451.249725 372.648254,441.828125 
	C373.143707,440.710541 373.498871,439.959778 373.878571,439.221619 
	C378.082275,431.049805 376.563721,426.279327 368.392365,422.273499 
	C365.560852,420.885406 362.631287,419.698822 359.776459,418.356567 
	C345.672882,411.725616 345.676422,411.718109 335.577728,423.526855 
	C330.760101,422.337219 326.348938,421.283844 321.552246,420.103943 
	C314.783600,419.293488 308.400452,418.609589 301.961151,417.471741 
	C301.849487,413.336945 301.793976,409.656097 302.040039,405.753754 
	C333.339508,395.590759 359.537262,378.387695 378.958527,352.196716 
	C387.503601,340.673096 393.726257,327.427307 401.325165,315.115295 
	C406.104034,316.762146 410.561096,318.257202 415.477112,319.835724 
	C417.760895,320.005676 419.585632,320.164215 421.410675,320.167786 
	C450.608093,320.224762 470.744476,291.255249 459.837402,264.198303 
	C452.582123,246.200256 438.293701,237.980774 419.134155,237.415558 
	C419.198608,231.517136 419.242004,226.078461 419.606018,220.773224 
	C425.201477,223.700134 430.265320,227.044022 435.798126,229.164307 
	C445.243805,232.784088 451.683319,229.014328 454.172241,219.240875 
	C456.192108,211.309052 454.236450,203.684189 450.400543,197.115372 
	C443.802521,185.816635 436.379028,174.961288 428.736603,164.326141 
	C424.422729,158.322998 418.980072,153.130966 413.179932,146.598236 
	C416.175812,147.410339 417.869995,148.065048 419.621429,148.309723 
	C426.339447,149.248260 433.111053,150.985260 439.798615,150.731995 
	C457.858429,150.048080 467.742371,134.355057 460.813599,117.698662 
	C458.540253,112.233673 455.335938,107.024078 451.833740,102.225838 
	C439.262573,85.002495 423.375946,71.060745 406.837708,57.812256 
	C405.346008,56.617279 403.924591,55.334499 401.994476,53.685883 
	C404.809296,52.297234 406.868347,51.281437 409.178101,50.552666 
	C410.012634,51.126747 410.668579,51.321701 411.169769,51.714249 
	C425.904510,63.255325 439.399963,76.063469 451.769592,90.148605 
	C464.367340,104.493553 475.065308,120.121696 483.873657,136.945877 
	C498.057556,164.037491 507.782623,192.650116 511.092285,223.238861 
	C511.162445,223.887115 512.339417,224.415634 513.000000,225.000000 
z"/>
<path fill="#000000" opacity="1.000000" stroke="none" 
	d="
M0.999998,289.468658 
	C1.660279,289.587372 2.836481,290.119019 2.906749,290.770081 
	C6.206803,321.345734 15.924206,349.941254 30.099094,377.025818 
	C38.758327,393.571381 49.248722,408.981323 61.569458,423.114380 
	C77.112183,440.943298 94.149139,457.056091 114.577194,470.301117 
	C131.260132,481.647217 148.443008,490.651215 167.179962,497.311951 
	C185.842377,503.639923 204.365616,509.383820 223.863953,511.071655 
	C224.295044,511.109009 224.623611,512.330750 225.000000,513.000000 
	C150.406296,513.000000 75.812599,513.000000 1.000000,513.000000 
	C1.000000,438.645905 1.000000,364.291626 0.999998,289.468658 
z"/>
<path fill="#000000" opacity="1.000000" stroke="none" 
	d="
M399.167877,470.018799 
	C406.573517,464.717102 414.379333,459.884430 421.283081,453.994446 
	C429.838501,446.695282 437.919220,438.781982 445.716858,430.665070 
	C459.373810,416.448975 470.535431,400.355652 480.372925,383.276947 
	C493.085938,361.206085 501.858917,337.656342 507.407379,312.881714 
	C509.009613,305.727509 509.804901,298.393982 511.043060,291.155090 
	C511.194214,290.271271 511.800018,289.465210 512.597534,288.811584 
	C513.000000,363.593719 513.000000,438.187408 513.000000,513.000000 
	C438.645905,513.000000 364.291626,513.000000 289.380432,512.582886 
	C292.570984,511.442871 296.346283,510.839355 300.059845,509.971527 
	C307.085083,508.329803 314.074829,506.536255 321.481812,504.833862 
	C322.710724,504.842682 323.612762,505.035736 324.352356,504.772552 
	C337.444092,500.112701 350.923889,496.275513 363.476837,490.445374 
	C375.864136,484.692139 387.309357,476.910522 399.167877,470.018799 
z"/>
<path fill="#000000" opacity="1.000000" stroke="none" 
	d="
M513.000000,224.531342 
	C512.339417,224.415634 511.162445,223.887115 511.092285,223.238861 
	C507.782623,192.650116 498.057556,164.037491 483.873657,136.945877 
	C475.065308,120.121696 464.367340,104.493553 451.769592,90.148605 
	C439.399963,76.063469 425.904510,63.255325 411.169769,51.714249 
	C410.668579,51.321701 410.012634,51.126747 409.448730,50.410366 
	C409.856628,49.682289 410.226379,49.355408 410.635468,49.089008 
	C417.248535,44.782722 421.463562,38.708721 420.812714,30.819895 
	C420.177246,23.117224 414.651947,19.266109 407.466461,16.647249 
	C390.788849,10.568786 373.336731,11.390367 356.150757,10.175889 
	C347.324341,9.552155 338.367950,10.768003 329.116394,11.075483 
	C316.756104,8.331785 304.741760,5.699786 292.754486,2.949726 
	C291.423889,2.644475 290.247742,1.666172 289.000000,1.000005 
	C363.593719,1.000000 438.187408,1.000000 513.000000,1.000000 
	C513.000000,75.354088 513.000000,149.708389 513.000000,224.531342 
z"/>
<path fill="#000000" opacity="1.000000" stroke="none" 
	d="
M105.101830,50.391418 
	C98.691025,55.470612 91.932480,60.172466 85.934608,65.699745 
	C67.943459,82.279327 51.892807,100.554138 39.011169,121.472145 
	C26.820774,141.267670 16.864582,162.092636 11.069472,184.656021 
	C7.832860,197.257843 5.620980,210.122406 2.898620,222.858170 
	C2.777990,223.422501 2.172027,223.883087 1.396063,224.195984 
	C1.000000,149.739456 1.000000,75.478920 1.000000,1.000000 
	C75.354088,1.000000 149.708389,1.000000 224.718430,1.402243 
	C219.895355,2.869291 214.373871,3.754380 208.947876,5.041794 
	C201.167801,6.887758 193.457367,9.027291 185.270020,11.033208 
	C176.081055,10.674278 167.340744,10.106392 158.596954,10.046292 
	C152.351028,10.003362 146.100647,10.646556 139.851837,10.975489 
	C127.924744,11.603326 116.120590,13.010296 104.803375,17.064526 
	C94.956810,20.591911 91.109489,27.714138 94.106651,37.694626 
	C95.809654,43.365604 99.980232,47.416126 105.101830,50.391418 
z"/>
<path fill="#6F5583" opacity="1.000000" stroke="none" 
	d="
M321.079346,504.805786 
	C314.074829,506.536255 307.085083,508.329803 300.059845,509.971527 
	C296.346283,510.839355 292.570984,511.442871 288.911774,512.582886 
	C270.979095,513.000000 252.958206,513.000000 234.110626,512.736816 
	C234.986053,511.569519 236.616684,510.480560 238.401489,509.790314 
	C254.182861,503.687256 268.922089,495.769836 282.012390,484.991211 
	C281.981201,484.988068 281.970215,485.049561 282.250641,484.958191 
	C282.794556,484.579865 283.058014,484.292877 283.629700,483.907532 
	C294.620880,473.246185 305.303833,462.683258 316.262756,451.941589 
	C316.719208,451.176819 316.899658,450.590698 317.052917,450.032867 
	C317.025665,450.061127 317.083893,450.113831 317.424042,450.084320 
	C323.837524,441.257599 329.910858,432.460388 335.984192,423.663147 
	C345.676422,411.718109 345.672882,411.725616 359.776459,418.356567 
	C362.631287,419.698822 365.560852,420.885406 368.392365,422.273499 
	C376.563721,426.279327 378.082275,431.049805 373.878571,439.221619 
	C373.498871,439.959778 373.143707,440.710541 372.455261,442.056885 
	C371.291534,443.882660 370.401398,445.076843 369.615021,446.335815 
	C356.073059,468.015472 340.004883,487.596039 321.079346,504.805786 
z"/>
<path fill="#F0EDE8" opacity="1.000000" stroke="none" 
	d="
M282.043549,484.994385 
	C268.922089,495.769836 254.182861,503.687256 238.401489,509.790314 
	C236.616684,510.480560 234.986053,511.569519 233.641968,512.736816 
	C231.299988,513.000000 228.599976,513.000000 225.449982,513.000000 
	C224.623611,512.330750 224.295044,511.109009 223.863953,511.071655 
	C204.365616,509.383820 185.842377,503.639923 167.023224,496.930908 
	C166.438766,494.606415 165.770370,492.897003 166.056290,491.365814 
	C167.908325,481.447693 169.068375,471.274017 172.184677,461.749939 
	C176.207565,449.455231 181.705109,437.601837 192.265411,429.245667 
	C192.738052,431.710602 192.867371,433.865692 193.254120,435.973602 
	C199.958237,472.511658 236.277298,495.976288 272.383850,487.142181 
	C275.587158,486.358398 278.822876,485.707153 282.043549,484.994385 
z"/>
<path fill="#44B6A0" opacity="1.000000" stroke="none" 
	d="
M185.717209,11.041487 
	C193.457367,9.027291 201.167801,6.887758 208.947876,5.041794 
	C214.373871,3.754380 219.895355,2.869291 225.187088,1.402243 
	C246.020889,1.000000 267.041779,1.000000 288.531342,1.000005 
	C290.247742,1.666172 291.423889,2.644475 292.754486,2.949726 
	C304.741760,5.699786 316.756104,8.331785 328.816956,11.272578 
	C327.881958,11.655852 326.895111,11.808057 325.902740,11.867788 
	C303.639648,13.207781 281.483551,15.287327 259.752991,20.698252 
	C257.643951,21.223408 255.218765,20.478952 252.585876,20.208187 
	C251.500977,19.943329 250.770554,19.794128 249.832199,19.472202 
	C249.097488,19.263573 248.570724,19.227673 247.655273,19.086788 
	C236.967361,17.330040 226.699905,15.432241 216.359848,14.096268 
	C206.183945,12.781502 195.934433,12.036496 185.717209,11.041487 
z"/>
<path fill="#D65D21" opacity="1.000000" stroke="none" 
	d="
M185.270020,11.033208 
	C195.934433,12.036496 206.183945,12.781502 216.359848,14.096268 
	C226.699905,15.432241 236.967361,17.330040 247.300995,19.305792 
	C244.687622,19.757164 242.035416,19.824820 239.392853,20.021933 
	C225.650620,21.046995 212.509201,23.717392 200.897751,31.962858 
	C189.755997,39.874775 188.432632,53.287487 193.653580,61.343655 
	C197.989105,68.033554 205.142075,69.527527 212.391174,69.914169 
	C219.558044,70.296410 226.761230,69.997696 234.971542,69.997696 
	C232.228745,72.556023 229.780197,74.735931 227.447449,77.033417 
	C216.342438,87.970551 206.977783,100.199173 200.338699,114.363319 
	C195.503616,124.678741 193.159637,135.676620 198.469879,146.144073 
	C206.500107,161.973083 218.096573,175.273102 231.258591,187.188614 
	C236.628571,192.050079 241.791290,197.140488 246.684525,202.060181 
	C238.838837,198.071091 231.298676,194.255051 223.888901,190.200699 
	C213.128616,184.313034 202.612946,177.961502 191.716797,172.343369 
	C179.001862,165.787415 167.323166,168.493378 156.477661,177.764069 
	C139.802826,191.209976 123.450142,204.525955 106.771835,217.973846 
	C102.551727,220.773758 98.657242,223.441727 94.762756,226.109711 
	C91.133400,227.721359 87.609306,229.652588 83.856323,230.889008 
	C68.146667,236.064484 56.046112,225.076660 59.411015,208.808990 
	C61.996979,196.307144 68.477776,185.648529 76.075562,175.761826 
	C83.249023,166.427261 91.230515,157.713669 99.219444,148.318253 
	C99.227913,147.718369 98.873505,147.527130 98.519096,147.335907 
	C88.580345,150.422531 78.525909,152.650345 68.132111,149.971680 
	C54.628433,146.491577 47.735828,133.909576 51.961838,120.571541 
	C56.055862,107.650063 64.463142,97.399658 73.782532,88.135078 
	C84.750145,77.231972 96.626755,67.243073 108.114723,56.863842 
	C109.080200,55.991543 110.087456,55.165482 111.636406,53.836533 
	C109.438850,52.628258 107.624992,51.630947 105.456482,50.512527 
	C99.980232,47.416126 95.809654,43.365604 94.106651,37.694626 
	C91.109489,27.714138 94.956810,20.591911 104.803375,17.064526 
	C116.120590,13.010296 127.924744,11.603326 139.851837,10.975489 
	C146.100647,10.646556 152.351028,10.003362 158.596954,10.046292 
	C167.340744,10.106392 176.081055,10.674278 185.270020,11.033208 
z"/>
<path fill="#EFB29A" opacity="1.000000" stroke="none" 
	d="
M301.738495,405.975220 
	C301.793976,409.656097 301.849487,413.336945 301.935974,417.846619 
	C300.402527,419.918793 299.025696,421.705811 297.244293,422.320587 
	C281.230896,427.847412 264.784119,430.788971 247.770172,430.030396 
	C245.038559,429.908630 242.296844,430.013367 238.987274,430.013367 
	C242.383636,448.341217 252.128082,460.252747 269.255005,466.890961 
	C251.382935,472.541992 231.144119,465.477020 220.928375,450.900085 
	C213.934937,440.921051 211.679337,429.716003 211.944794,417.797485 
	C212.725891,406.525177 212.725113,406.527161 202.225967,402.386383 
	C161.714615,386.409180 132.541809,358.568085 114.756912,318.804382 
	C114.294884,317.771393 113.699005,316.798279 113.126076,315.723175 
	C108.537788,317.131622 104.144165,318.480286 99.293152,319.426483 
	C97.563232,313.019470 95.763847,307.064514 95.193047,300.994019 
	C94.773285,296.529938 93.836426,294.255676 88.941933,293.273834 
	C81.337112,291.748352 77.702934,285.889893 78.000984,277.720276 
	C78.248421,270.938019 82.301682,266.777130 89.711937,264.840515 
	C91.617157,264.342621 94.257370,262.499939 94.593887,260.869293 
	C96.131165,253.420151 96.968819,245.826645 98.422058,238.202637 
	C105.165947,238.120285 111.545639,238.120285 118.045975,238.120285 
	C118.045975,248.097626 118.023933,257.394684 118.050758,266.691650 
	C118.100143,283.803619 128.852966,294.556061 146.074326,294.761414 
	C151.381149,294.824677 156.687668,294.912048 161.998077,295.393555 
	C167.447983,320.198822 179.339554,341.329712 195.609268,359.956451 
	C210.669815,377.198853 228.937668,390.475494 250.042831,399.401794 
	C266.378693,406.311005 282.953827,413.338623 301.243103,406.014343 
	C301.389923,405.955536 301.572571,405.986267 301.738495,405.975220 
z"/>
<path fill="#1A2022" opacity="1.000000" stroke="none" 
	d="
M161.994324,294.988403 
	C156.687668,294.912048 151.381149,294.824677 146.074326,294.761414 
	C128.852966,294.556061 118.100143,283.803619 118.050758,266.691650 
	C118.023933,257.394684 118.045975,248.097626 118.045975,238.120285 
	C111.545639,238.120285 105.165947,238.120285 98.030518,238.114532 
	C96.478683,238.031281 95.682594,237.953751 94.886505,237.876236 
	C94.861320,234.254562 94.836143,230.632889 94.786858,226.560455 
	C98.657242,223.441727 102.551727,220.773758 107.225327,218.033783 
	C109.995262,217.974304 112.002327,217.829346 113.973465,218.032623 
	C117.888084,218.436401 120.562759,217.570389 122.742226,213.636612 
	C125.995316,207.765015 131.500839,203.939392 138.210571,202.992035 
	C144.405441,202.117416 150.738022,202.218094 157.472122,201.968170 
	C178.030029,202.056274 198.125763,202.067474 218.221497,202.073959 
	C237.178314,202.080078 247.482208,212.301987 247.449890,231.396973 
	C247.376862,232.692581 247.430954,233.793945 247.535339,235.356201 
	C247.600189,239.473862 247.614761,243.130646 247.452637,247.166977 
	C247.366806,252.339859 247.457642,257.133179 247.573975,262.373230 
	C247.251694,267.341705 246.903946,271.863373 246.348480,276.681091 
	C242.720459,281.552917 239.300156,286.128754 235.524902,290.805725 
	C229.741501,292.190033 224.339661,294.431183 218.879745,294.582947 
	C199.928833,295.109802 180.957733,294.911072 161.994324,294.988403 
M180.838211,274.817139 
	C193.636063,274.817200 206.433929,274.820435 219.231781,274.815002 
	C222.164093,274.813751 227.707184,270.095642 227.713440,267.277618 
	C227.726334,261.474121 227.477921,255.670059 227.563873,248.972885 
	C227.577820,242.641769 227.662704,236.309769 227.585068,229.979782 
	C227.512589,224.068558 225.575729,222.098328 219.828552,222.090790 
	C195.169601,222.058395 170.510544,222.058929 145.851593,222.091049 
	C140.076141,222.098572 138.084961,224.104797 138.062912,229.906387 
	C138.016052,242.235703 138.016251,254.565430 138.063950,266.894745 
	C138.085449,272.456207 140.058487,274.671509 145.433533,274.708649 
	C156.925812,274.788086 168.419601,274.647430 180.838211,274.817139 
z"/>
<path fill="#F9C5AC" opacity="1.000000" stroke="none" 
	d="
M211.611526,417.827637 
	C211.679337,429.716003 213.934937,440.921051 220.928375,450.900085 
	C231.144119,465.477020 251.382935,472.541992 269.255005,466.890961 
	C252.128082,460.252747 242.383636,448.341217 238.987274,430.013367 
	C242.296844,430.013367 245.038559,429.908630 247.770172,430.030396 
	C264.784119,430.788971 281.230896,427.847412 297.244293,422.320587 
	C299.025696,421.705811 300.402527,419.918793 301.992126,418.300537 
	C308.400452,418.609589 314.783600,419.293488 321.556152,420.536194 
	C321.763580,423.548737 321.799377,426.042389 321.358826,428.448822 
	C320.033417,435.688721 318.522461,442.894653 317.083893,450.113831 
	C317.083893,450.113831 317.025665,450.061127 316.811890,450.226013 
	C316.394348,450.967377 316.190552,451.543854 315.986755,452.120300 
	C305.303833,462.683258 294.620880,473.246185 283.366089,484.033081 
	C282.519592,484.521179 282.244904,484.785370 281.970215,485.049561 
	C281.970215,485.049561 281.981201,484.988068 282.012390,484.991241 
	C278.822876,485.707153 275.587158,486.358398 272.383850,487.142181 
	C236.277298,495.976288 199.958237,472.511658 193.254120,435.973602 
	C192.867371,433.865692 192.738052,431.710602 192.291672,428.989319 
	C192.110535,428.229492 192.126678,428.057800 192.423599,427.734070 
	C198.459610,424.430115 204.214828,421.278137 209.970047,418.126190 
	C210.406113,418.036713 210.842194,417.947235 211.611526,417.827637 
z"/>
<path fill="#D6D3CD" opacity="1.000000" stroke="none" 
	d="
M192.142807,427.886078 
	C192.126678,428.057800 192.110535,428.229492 192.068146,428.657532 
	C181.705109,437.601837 176.207565,449.455231 172.184677,461.749939 
	C169.068375,471.274017 167.908325,481.447693 166.056290,491.365814 
	C165.770370,492.897003 166.438766,494.606415 166.822571,496.614441 
	C148.443008,490.651215 131.260132,481.647217 114.922264,470.292542 
	C123.578476,456.108124 135.732666,445.674835 149.418259,436.898071 
	C162.274384,428.653259 176.260147,423.122864 191.623291,420.555847 
	C192.057266,423.306824 192.100037,425.596436 192.142807,427.886078 
z"/>
<path fill="#F8C5AC" opacity="1.000000" stroke="none" 
	d="
M94.450768,237.934708 
	C95.682594,237.953751 96.478683,238.031281 97.666321,238.196899 
	C96.968819,245.826645 96.131165,253.420151 94.593887,260.869293 
	C94.257370,262.499939 91.617157,264.342621 89.711937,264.840515 
	C82.301682,266.777130 78.248421,270.938019 78.000984,277.720276 
	C77.702934,285.889893 81.337112,291.748352 88.941933,293.273834 
	C93.836426,294.255676 94.773285,296.529938 95.193047,300.994019 
	C95.763847,307.064514 97.563232,313.019470 98.911377,319.389404 
	C74.598106,322.299469 55.525200,308.305328 51.728294,285.080231 
	C47.924416,261.812500 65.972382,239.359451 89.527580,238.070358 
	C91.020340,237.988663 92.519073,238.016373 94.450768,237.934708 
z"/>
<path fill="#EDB59E" opacity="1.000000" stroke="none" 
	d="
M192.423599,427.734070 
	C192.100037,425.596436 192.057266,423.306824 192.020233,420.586945 
	C197.707169,419.445770 203.388351,418.734863 209.519806,418.075073 
	C204.214828,421.278137 198.459610,424.430115 192.423599,427.734070 
z"/>
<path fill="#ED7B3B" opacity="1.000000" stroke="none" 
	d="
M247.048325,202.126724 
	C241.791290,197.140488 236.628571,192.050079 231.258591,187.188614 
	C218.096573,175.273102 206.500107,161.973083 198.469879,146.144073 
	C193.159637,135.676620 195.503616,124.678741 200.338699,114.363319 
	C206.977783,100.199173 216.342438,87.970551 227.447449,77.033417 
	C229.780197,74.735931 232.228745,72.556023 234.971542,69.997696 
	C226.761230,69.997696 219.558044,70.296410 212.391174,69.914169 
	C205.142075,69.527527 197.989105,68.033554 193.653580,61.343655 
	C188.432632,53.287487 189.755997,39.874775 200.897751,31.962858 
	C212.509201,23.717392 225.650620,21.046995 239.392853,20.021933 
	C242.035416,19.824820 244.687622,19.757164 247.689667,19.410778 
	C248.570724,19.227673 249.097488,19.263573 249.975723,19.731165 
	C251.198227,20.216518 252.069290,20.270182 252.940338,20.323845 
	C255.218765,20.478952 257.643951,21.223408 259.752991,20.698252 
	C281.483551,15.287327 303.639648,13.207781 325.902740,11.867788 
	C326.895111,11.808057 327.881958,11.655852 329.170837,11.349627 
	C338.367950,10.768003 347.324341,9.552155 356.150757,10.175889 
	C373.336731,11.390367 390.788849,10.568786 407.466461,16.647249 
	C414.651947,19.266109 420.177246,23.117224 420.812714,30.819895 
	C421.463562,38.708721 417.248535,44.782722 410.635468,49.089008 
	C410.226379,49.355408 409.856628,49.682289 409.197998,50.123344 
	C406.868347,51.281437 404.809296,52.297234 401.994476,53.685883 
	C403.924591,55.334499 405.346008,56.617279 406.837708,57.812256 
	C423.375946,71.060745 439.262573,85.002495 451.833740,102.225838 
	C455.335938,107.024078 458.540253,112.233673 460.813599,117.698662 
	C467.742371,134.355057 457.858429,150.048080 439.798615,150.731995 
	C433.111053,150.985260 426.339447,149.248260 419.621429,148.309723 
	C417.869995,148.065048 416.175812,147.410339 413.179932,146.598236 
	C418.980072,153.130966 424.422729,158.322998 428.736603,164.326141 
	C436.379028,174.961288 443.802521,185.816635 450.400543,197.115372 
	C454.236450,203.684189 456.192108,211.309052 454.172241,219.240875 
	C451.683319,229.014328 445.243805,232.784088 435.798126,229.164307 
	C430.265320,227.044022 425.201477,223.700134 419.406616,220.530396 
	C417.107056,218.778519 415.327515,217.402908 413.222992,215.860107 
	C406.190369,210.230270 399.537415,204.698761 392.764374,199.318466 
	C375.581787,185.669113 358.730896,171.551788 340.936646,158.748306 
	C334.029022,153.778076 325.183685,150.872757 316.784882,148.763580 
	C306.502045,146.181335 298.297058,153.869263 298.948486,164.328232 
	C299.225342,168.773376 300.215149,173.206955 301.221649,177.567154 
	C303.491241,187.399261 301.538849,195.704987 292.752136,202.041824 
	C286.710236,204.172211 280.997284,206.152893 274.812775,208.096405 
	C264.759399,208.309265 255.705902,206.128693 247.048325,202.126724 
z"/>
<path fill="#F9C5AC" opacity="1.000000" stroke="none" 
	d="
M161.998077,295.393524 
	C180.957733,294.911072 199.928833,295.109802 218.879745,294.582947 
	C224.339661,294.431183 229.741501,292.190033 235.769714,291.126373 
	C237.895447,291.888336 239.415558,292.880768 240.948349,292.900726 
	C251.580002,293.039368 262.216248,293.078735 272.845764,292.875458 
	C274.612427,292.841614 276.353485,291.466827 278.462250,290.811768 
	C284.241455,292.193329 289.647766,294.489929 295.091064,294.581329 
	C319.188934,294.985901 343.297546,294.803101 367.402039,294.741882 
	C385.243713,294.696564 395.914246,283.949921 395.944489,266.157806 
	C395.960236,256.903137 395.947266,247.648392 395.947266,237.787979 
	C401.716187,238.047791 406.961273,238.284012 412.127014,238.943420 
	C412.788605,265.211639 410.104584,290.556305 401.003357,314.963470 
	C393.726257,327.427307 387.503601,340.673096 378.958527,352.196716 
	C359.537262,378.387695 333.339508,395.590759 302.040039,405.753754 
	C301.572571,405.986267 301.389923,405.955536 301.243103,406.014343 
	C282.953827,413.338623 266.378693,406.311005 250.042831,399.401794 
	C228.937668,390.475494 210.669815,377.198853 195.609268,359.956451 
	C179.339554,341.329712 167.447983,320.198822 161.998077,295.393524 
M249.089722,338.521362 
	C265.122803,340.230682 280.245605,337.146454 294.179596,329.161957 
	C296.177368,328.017181 297.904266,324.171967 297.587616,321.875610 
	C297.301147,319.798401 294.313843,317.232391 292.023041,316.555481 
	C290.063721,315.976593 287.282837,317.516235 285.073944,318.560303 
	C276.063141,322.819366 266.689819,325.065063 256.661682,325.069885 
	C245.721695,325.075104 235.750671,321.917328 226.038834,317.245972 
	C222.020920,315.313354 217.724731,316.905457 216.469925,320.577209 
	C215.116531,324.537506 216.385864,327.631927 220.286545,329.698212 
	C229.064362,334.347961 238.302338,337.389008 249.089722,338.521362 
z"/>
<path fill="#1A2022" opacity="1.000000" stroke="none" 
	d="
M412.206390,238.520233 
	C406.961273,238.284012 401.716187,238.047791 395.947266,237.787979 
	C395.947266,247.648392 395.960236,256.903137 395.944489,266.157806 
	C395.914246,283.949921 385.243713,294.696564 367.402039,294.741882 
	C343.297546,294.803101 319.188934,294.985901 295.091064,294.581329 
	C289.647766,294.489929 284.241455,292.193329 278.293732,290.533295 
	C274.319916,285.575592 270.870514,280.996399 267.362305,276.018036 
	C267.018127,271.053741 266.732697,266.488647 266.531799,261.533447 
	C266.533997,256.359283 266.451691,251.575211 266.373108,246.341461 
	C266.424957,242.223785 266.473053,238.555786 266.650574,234.745667 
	C266.702606,234.065033 266.625153,233.526520 266.482819,232.609131 
	C266.322052,231.992584 266.226227,231.754913 266.217743,231.077377 
	C265.995789,221.818512 269.074615,214.351425 275.284332,208.133575 
	C280.997284,206.152893 286.710236,204.172211 293.210449,202.110992 
	C319.071167,202.045135 344.144623,202.057480 369.218109,202.075851 
	C377.689667,202.082047 385.613953,204.751221 389.859192,211.954788 
	C393.407928,217.976532 397.717560,218.453674 403.328491,218.021179 
	C405.309387,217.868500 407.353943,218.243332 409.290833,217.914444 
	C410.773926,217.662628 412.133484,216.683136 413.547974,216.027313 
	C415.327515,217.402908 417.107056,218.778519 419.085999,220.396942 
	C419.242004,226.078461 419.198608,231.517136 418.763489,237.483765 
	C417.878265,238.086990 417.384735,238.162292 416.501282,238.164719 
	C414.809692,238.234634 413.508057,238.377426 412.206390,238.520233 
M335.007812,274.729950 
	C346.003052,274.737061 356.998657,274.799561 367.993378,274.728333 
	C373.652039,274.691681 375.879456,272.664856 375.913513,267.447205 
	C375.997253,254.619904 375.962616,241.791611 375.928253,228.963852 
	C375.916412,224.547104 373.683350,222.097702 369.187347,222.093018 
	C343.864838,222.066666 318.542328,222.076462 293.219818,222.081268 
	C288.683899,222.082138 286.441254,224.541656 286.422882,228.911682 
	C286.393524,235.898743 286.561768,242.886642 286.381836,250.794067 
	C286.331696,256.096008 286.243591,261.397919 286.245331,266.699860 
	C286.246429,269.977295 290.723511,274.832886 293.848450,274.825897 
	C307.262695,274.795837 320.676727,274.681427 335.007812,274.729950 
z"/>
<path fill="#F8C5AC" opacity="1.000000" stroke="none" 
	d="
M416.891174,238.237595 
	C417.384735,238.162292 417.878265,238.086990 418.742493,237.943481 
	C438.293701,237.980774 452.582123,246.200256 459.837402,264.198303 
	C470.744476,291.255249 450.608093,320.224762 421.410675,320.167786 
	C419.585632,320.164215 417.760895,320.005676 415.551117,319.470337 
	C416.419861,313.345795 418.344788,307.715393 418.731506,301.981293 
	C419.091858,296.638550 420.761963,294.070221 426.170441,292.928650 
	C432.023834,291.693207 435.728394,286.267578 435.995697,280.537537 
	C436.340515,273.146210 434.002991,267.296539 427.844177,266.268799 
	C419.542969,264.883575 418.833862,259.554321 418.071014,253.340256 
	C417.728088,250.546890 416.838562,247.813965 416.584900,245.018417 
	C416.382355,242.785782 416.767120,240.499863 416.891174,238.237595 
z"/>
<path fill="#EDECE7" opacity="1.000000" stroke="none" 
	d="
M321.481812,504.833893 
	C340.004883,487.596039 356.073059,468.015472 369.615021,446.335815 
	C370.401398,445.076843 371.291534,443.882660 372.326416,442.429565 
	C381.343933,451.249725 390.168427,460.298645 399.080414,469.683167 
	C387.309357,476.910522 375.864136,484.692139 363.476837,490.445374 
	C350.923889,496.275513 337.444092,500.112701 324.352356,504.772552 
	C323.612762,505.035736 322.710724,504.842682 321.481812,504.833893 
z"/>
<path fill="#EFB29A" opacity="1.000000" stroke="none" 
	d="
M416.501282,238.164719 
	C416.767120,240.499863 416.382355,242.785782 416.584900,245.018417 
	C416.838562,247.813965 417.728088,250.546890 418.071014,253.340256 
	C418.833862,259.554321 419.542969,264.883575 427.844177,266.268799 
	C434.002991,267.296539 436.340515,273.146210 435.995697,280.537537 
	C435.728394,286.267578 432.023834,291.693207 426.170441,292.928650 
	C420.761963,294.070221 419.091858,296.638550 418.731506,301.981293 
	C418.344788,307.715393 416.419861,313.345795 415.092163,319.386841 
	C410.561096,318.257202 406.104034,316.762146 401.325165,315.115295 
	C410.104584,290.556305 412.788605,265.211639 412.127014,238.943420 
	C413.508057,238.377426 414.809692,238.234634 416.501282,238.164719 
z"/>
<path fill="#EDEBE6" opacity="1.000000" stroke="none" 
	d="
M317.424042,450.084320 
	C318.522461,442.894653 320.033417,435.688721 321.358826,428.448822 
	C321.799377,426.042389 321.763580,423.548737 321.941650,420.662720 
	C326.348938,421.283844 330.760101,422.337219 335.577759,423.526855 
	C329.910858,432.460388 323.837524,441.257599 317.424042,450.084320 
z"/>
<path fill="#EDEBE6" opacity="1.000000" stroke="none" 
	d="
M316.262756,451.941620 
	C316.190552,451.543854 316.394348,450.967377 316.839142,450.197754 
	C316.899658,450.590698 316.719208,451.176819 316.262756,451.941620 
z"/>
<path fill="#F0EDE8" opacity="1.000000" stroke="none" 
	d="
M282.250641,484.958191 
	C282.244904,484.785370 282.519592,484.521179 283.057892,484.131470 
	C283.058014,484.292877 282.794556,484.579865 282.250641,484.958191 
z"/>
<path fill="#D65D21" opacity="1.000000" stroke="none" 
	d="
M252.585876,20.208187 
	C252.069290,20.270182 251.198227,20.216518 250.183655,19.903893 
	C250.770554,19.794128 251.500977,19.943329 252.585876,20.208187 
z"/>
<path fill="#F8C4AB" opacity="1.000000" stroke="none" 
	d="
M274.812775,208.096405 
	C269.074615,214.351425 265.995789,221.818512 265.919128,230.814667 
	C260.396088,226.398422 252.614624,226.664795 248.078949,231.439362 
	C248.031967,231.291016 247.841476,231.050766 247.841476,231.050766 
	C247.841476,231.050766 247.577011,231.202713 247.577011,231.202713 
	C247.482208,212.301987 237.178314,202.080078 218.221497,202.073959 
	C198.125763,202.067474 178.030029,202.056274 157.467346,201.506714 
	C156.933548,193.188919 156.866684,185.411530 156.799820,177.634140 
	C167.323166,168.493378 179.001862,165.787415 191.716797,172.343369 
	C202.612946,177.961502 213.128616,184.313034 223.888901,190.200699 
	C231.298676,194.255051 238.838837,198.071091 246.684525,202.060181 
	C255.705902,206.128693 264.759399,208.309265 274.812775,208.096405 
z"/>
<path fill="#EEB098" opacity="1.000000" stroke="none" 
	d="
M156.477661,177.764069 
	C156.866684,185.411530 156.933548,193.188919 157.005188,201.427765 
	C150.738022,202.218094 144.405441,202.117416 138.210571,202.992035 
	C131.500839,203.939392 125.995316,207.765015 122.742226,213.636612 
	C120.562759,217.570389 117.888084,218.436401 113.973465,218.032623 
	C112.002327,217.829346 109.995262,217.974304 107.550949,217.901855 
	C123.450142,204.525955 139.802826,191.209976 156.477661,177.764069 
z"/>
<path fill="#42B7A1" opacity="1.000000" stroke="none" 
	d="
M98.658310,147.539200 
	C98.873505,147.527130 99.227913,147.718369 99.352783,148.010925 
	C99.123260,148.112244 98.797516,147.742493 98.658310,147.539200 
z"/>
<path fill="#EFECE7" opacity="1.000000" stroke="none" 
	d="
M179.912781,274.596893 
	C168.419601,274.647430 156.925812,274.788086 145.433533,274.708649 
	C140.058487,274.671509 138.085449,272.456207 138.063950,266.894745 
	C138.016251,254.565430 138.016052,242.235703 138.062912,229.906387 
	C138.084961,224.104797 140.076141,222.098572 145.851593,222.091049 
	C170.510544,222.058929 195.169601,222.058395 219.828552,222.090790 
	C225.575729,222.098328 227.512589,224.068558 227.585068,229.979782 
	C227.662704,236.309769 227.577820,242.641769 227.095825,249.457047 
	C225.439438,249.954254 224.251083,249.967300 222.983704,249.587158 
	C221.053970,236.764603 214.209625,229.521881 202.544952,228.038940 
	C188.129562,227.833878 179.685013,235.514511 177.470276,250.005585 
	C169.408844,250.142334 168.497757,251.425827 170.910004,258.905579 
	C171.464661,260.625366 172.108337,262.368896 173.035660,263.905579 
	C175.224075,267.532074 177.607956,271.040649 179.912781,274.596893 
z"/>
<path fill="#C9C6C0" opacity="1.000000" stroke="none" 
	d="
M223.062729,249.980347 
	C224.251083,249.967300 225.439438,249.954254 226.982407,249.903717 
	C227.477921,255.670059 227.726334,261.474121 227.713440,267.277618 
	C227.707184,270.095642 222.164093,274.813751 219.231781,274.815002 
	C206.433929,274.820435 193.636063,274.817200 180.375488,274.707031 
	C177.607956,271.040649 175.224075,267.532074 173.035660,263.905579 
	C172.108337,262.368896 171.464661,260.625366 170.910004,258.905579 
	C168.497757,251.425827 169.408844,250.142334 177.558411,250.402405 
	C179.919189,255.434769 180.958115,260.661377 183.764389,264.642090 
	C188.772537,271.746185 199.012650,274.237488 205.869171,271.292419 
	C217.110321,268.504456 221.917862,260.678284 223.062729,249.980347 
z"/>
<path fill="#ECB199" opacity="1.000000" stroke="none" 
	d="
M267.421082,276.417236 
	C270.870514,280.996399 274.319916,285.575592 277.937866,290.433228 
	C276.353485,291.466827 274.612427,292.841614 272.845764,292.875458 
	C262.216248,293.078735 251.580002,293.039368 240.948349,292.900726 
	C239.415558,292.880768 237.895447,291.888336 236.124664,291.025269 
	C239.300156,286.128754 242.720459,281.552917 246.668381,277.015564 
	C253.937683,276.841797 260.679382,276.629517 267.421082,276.417236 
z"/>
<path fill="#41B3D1" opacity="1.000000" stroke="none" 
	d="
M248.125916,231.587692 
	C252.614624,226.664795 260.396088,226.398422 265.831787,231.254547 
	C266.226227,231.754913 266.322052,231.992584 266.332245,232.801178 
	C266.338074,233.877319 266.429596,234.382568 266.521118,234.887802 
	C266.473053,238.555786 266.424957,242.223785 266.156372,246.666306 
	C261.439667,253.073471 251.816696,252.729980 247.629333,246.787415 
	C247.614761,243.130646 247.600189,239.473862 247.651077,235.049210 
	C247.852997,233.383453 247.989456,232.485565 248.125916,231.587692 
z"/>
<path fill="#0B819F" opacity="1.000000" stroke="none" 
	d="
M247.452652,247.166977 
	C251.816696,252.729980 261.439667,253.073471 266.152649,247.115997 
	C266.451691,251.575211 266.533997,256.359283 266.141266,261.594971 
	C260.324554,266.215057 254.393570,266.175720 247.548492,261.926483 
	C247.457642,257.133179 247.366806,252.339859 247.452652,247.166977 
z"/>
<path fill="#F5C2AA" opacity="1.000000" stroke="none" 
	d="
M247.573975,262.373230 
	C254.393570,266.175720 260.324554,266.215057 266.056732,261.985107 
	C266.732697,266.488647 267.018127,271.053741 267.362305,276.018036 
	C260.679382,276.629517 253.937683,276.841797 246.876099,276.719574 
	C246.903946,271.863373 247.251694,267.341705 247.573975,262.373230 
z"/>
<path fill="#0B819F" opacity="1.000000" stroke="none" 
	d="
M248.078949,231.439362 
	C247.989456,232.485565 247.852997,233.383453 247.600800,234.588318 
	C247.430954,233.793945 247.376862,232.692581 247.449890,231.396973 
	C247.577011,231.202713 247.841476,231.050766 247.841476,231.050766 
	C247.841476,231.050766 248.031967,231.291016 248.078949,231.439362 
z"/>
<path fill="#F8C4AB" opacity="1.000000" stroke="none" 
	d="
M413.222992,215.860123 
	C412.133484,216.683136 410.773926,217.662628 409.290833,217.914444 
	C407.353943,218.243332 405.309387,217.868500 403.328491,218.021179 
	C397.717560,218.453674 393.407928,217.976532 389.859192,211.954788 
	C385.613953,204.751221 377.689667,202.082047 369.218109,202.075851 
	C344.144623,202.057480 319.071167,202.045135 293.539368,201.961273 
	C301.538849,195.704987 303.491241,187.399261 301.221649,177.567154 
	C300.215149,173.206955 299.225342,168.773376 298.948486,164.328232 
	C298.297058,153.869263 306.502045,146.181335 316.784882,148.763580 
	C325.183685,150.872757 334.029022,153.778076 340.936646,158.748306 
	C358.730896,171.551788 375.581787,185.669113 392.764374,199.318466 
	C399.537415,204.698761 406.190369,210.230270 413.222992,215.860123 
z"/>
<path fill="#DEA08B" opacity="1.000000" stroke="none" 
	d="
M248.653168,338.405090 
	C238.302338,337.389008 229.064362,334.347961 220.286545,329.698212 
	C216.385864,327.631927 215.116531,324.537506 216.469925,320.577209 
	C217.724731,316.905457 222.020920,315.313354 226.038834,317.245972 
	C235.750671,321.917328 245.721695,325.075104 256.661682,325.069885 
	C266.689819,325.065063 276.063141,322.819366 285.073944,318.560303 
	C287.282837,317.516235 290.063721,315.976593 292.023041,316.555481 
	C294.313843,317.232391 297.301147,319.798401 297.587616,321.875610 
	C297.904266,324.171967 296.177368,328.017181 294.179596,329.161957 
	C280.245605,337.146454 265.122803,340.230682 248.653168,338.405090 
z"/>
<path fill="#EFECE7" opacity="1.000000" stroke="none" 
	d="
M286.646484,249.874176 
	C286.561768,242.886642 286.393524,235.898743 286.422882,228.911682 
	C286.441254,224.541656 288.683899,222.082138 293.219818,222.081268 
	C318.542328,222.076462 343.864838,222.066666 369.187347,222.093018 
	C373.683350,222.097702 375.916412,224.547104 375.928253,228.963852 
	C375.962616,241.791611 375.997253,254.619904 375.913513,267.447205 
	C375.879456,272.664856 373.652039,274.691681 367.993378,274.728333 
	C356.998657,274.799561 346.003052,274.737061 334.625916,274.350708 
	C337.060455,269.394287 340.433197,265.060608 342.567596,260.184906 
	C346.088379,252.142227 344.557434,250.178741 335.870972,249.630005 
	C333.669403,236.555099 327.288696,229.743301 315.542175,228.049667 
	C304.012726,226.380493 291.463043,235.394012 290.522827,249.999634 
	C288.995728,249.978622 287.821106,249.926407 286.646484,249.874176 
z"/>
<path fill="#C8C5C0" opacity="1.000000" stroke="none" 
	d="
M335.968719,250.010330 
	C344.557434,250.178741 346.088379,252.142227 342.567596,260.184906 
	C340.433197,265.060608 337.060455,269.394287 334.167450,274.284607 
	C320.676727,274.681427 307.262695,274.795837 293.848450,274.825897 
	C290.723511,274.832886 286.246429,269.977295 286.245331,266.699860 
	C286.243591,261.397919 286.331696,256.096008 286.514160,250.334122 
	C287.821106,249.926407 288.995728,249.978622 290.601105,250.405273 
	C292.742310,255.331909 293.639587,260.452026 296.337280,264.314758 
	C301.511597,271.723694 311.696869,274.311981 318.885254,271.255402 
	C330.093994,268.452820 334.677551,260.518768 335.968719,250.010330 
z"/>
<path fill="#0B819F" opacity="1.000000" stroke="none" 
	d="
M266.650574,234.745667 
	C266.429596,234.382568 266.338074,233.877319 266.397156,233.180054 
	C266.625153,233.526520 266.702606,234.065033 266.650574,234.745667 
z"/>
<path fill="#333A3E" opacity="1.000000" stroke="none" 
	d="
M222.983704,249.587158 
	C221.917862,260.678284 217.110321,268.504456 205.458771,271.277557 
	C196.903168,269.175934 190.273590,262.063263 189.117142,254.264084 
	C187.773987,245.205627 192.044525,235.513474 199.010239,231.456116 
	C200.483673,230.597855 201.666153,229.240036 202.982681,228.112396 
	C214.209625,229.521881 221.053970,236.764603 222.983704,249.587158 
M218.761749,249.671768 
	C219.989731,244.832153 219.322662,240.110336 214.460861,238.240494 
	C211.513412,237.106903 207.233261,237.480118 204.287766,238.808380 
	C200.810410,240.376495 199.695602,244.289429 200.631821,248.292313 
	C201.561234,252.266113 204.136383,254.764114 208.040298,255.517319 
	C212.641830,256.405121 216.135483,254.528442 218.761749,249.671768 
z"/>
<path fill="#1C2225" opacity="1.000000" stroke="none" 
	d="
M202.544952,228.038940 
	C201.666153,229.240036 200.483673,230.597855 199.010239,231.456116 
	C192.044525,235.513474 187.773987,245.205627 189.117142,254.264084 
	C190.273590,262.063263 196.903168,269.175934 205.156372,271.046631 
	C199.012650,274.237488 188.772537,271.746185 183.764389,264.642090 
	C180.958115,260.661377 179.919189,255.434769 177.995789,250.372726 
	C179.685013,235.514511 188.129562,227.833878 202.544952,228.038940 
z"/>
<path fill="#333A3E" opacity="1.000000" stroke="none" 
	d="
M335.870972,249.630005 
	C334.677551,260.518768 330.093994,268.452820 318.474365,271.242981 
	C309.734985,269.147461 303.267914,262.204651 302.108124,254.242493 
	C300.694305,244.536194 304.557373,235.764938 311.980713,231.463257 
	C313.462433,230.604599 314.655853,229.248413 315.982208,228.121643 
	C327.288696,229.743301 333.669403,236.555099 335.870972,249.630005 
M327.929199,238.270111 
	C324.072083,236.123688 319.805756,235.717926 316.900330,239.008682 
	C314.864105,241.314957 313.480713,245.148560 313.633331,248.208923 
	C313.850677,252.566666 317.396729,255.223297 321.779785,255.674271 
	C325.924988,256.100769 329.320679,254.335571 331.134796,250.424072 
	C333.203156,245.964371 332.314728,242.011917 327.929199,238.270111 
z"/>
<path fill="#1C2225" opacity="1.000000" stroke="none" 
	d="
M315.542175,228.049667 
	C314.655853,229.248413 313.462433,230.604599 311.980713,231.463257 
	C304.557373,235.764938 300.694305,244.536194 302.108124,254.242493 
	C303.267914,262.204651 309.734985,269.147461 318.157990,271.044434 
	C311.696869,274.311981 301.511597,271.723694 296.337280,264.314758 
	C293.639587,260.452026 292.742310,255.331909 290.953552,250.374069 
	C291.463043,235.394012 304.012726,226.380493 315.542175,228.049667 
z"/>
<path fill="#F9FAFA" opacity="1.000000" stroke="none" 
	d="
M218.557999,250.019852 
	C216.135483,254.528442 212.641830,256.405121 208.040298,255.517319 
	C204.136383,254.764114 201.561234,252.266113 200.631821,248.292313 
	C199.695602,244.289429 200.810410,240.376495 204.287766,238.808380 
	C207.233261,237.480118 211.513412,237.106903 214.460861,238.240494 
	C219.322662,240.110336 219.989731,244.832153 218.557999,250.019852 
z"/>
<path fill="#FAFAFA" opacity="1.000000" stroke="none" 
	d="
M328.235046,238.523788 
	C332.314728,242.011917 333.203156,245.964371 331.134796,250.424072 
	C329.320679,254.335571 325.924988,256.100769 321.779785,255.674271 
	C317.396729,255.223297 313.850677,252.566666 313.633331,248.208923 
	C313.480713,245.148560 314.864105,241.314957 316.900330,239.008682 
	C319.805756,235.717926 324.072083,236.123688 328.235046,238.523788 
z"/>
</svg>