<?xml version="1.0" standalone="no"?>
<!DOCTYPE svg PUBLIC "-//W3C//DTD SVG 20010904//EN"
 "http://www.w3.org/TR/2001/REC-SVG-20010904/DTD/svg10.dtd">
<svg version="1.0" xmlns="http://www.w3.org/2000/svg"
 width="512.000000pt" height="512.000000pt" viewBox="0 0 512.000000 512.000000"
 preserveAspectRatio="xMidYMid meet">

<g transform="translate(0.000000,512.000000) scale(0.100000,-0.100000)"
fill="#000000" stroke="none">
<path d="M1351 5009 c-200 -15 -332 -53 -387 -110 -25 -26 -29 -38 -29 -88 0
-74 33 -127 113 -178 31 -21 59 -39 61 -40 3 -2 -6 -11 -19 -20 -59 -41 -212
-176 -297 -261 -186 -185 -281 -332 -291 -447 -4 -52 0 -69 22 -113 49 -97
149 -141 289 -127 39 3 98 15 131 26 34 10 63 19 65 19 3 0 -29 -35 -70 -77
-92 -95 -172 -194 -233 -291 -155 -239 -163 -406 -24 -478 43 -22 118 -15 191
19 l57 26 0 -60 0 -59 120 0 120 0 0 -173 c0 -197 9 -239 66 -305 19 -22 55
-51 82 -64 l47 -23 450 0 c435 0 451 1 495 21 95 44 147 125 157 244 5 60 8
67 19 52 18 -25 130 -25 148 0 11 15 14 8 19 -51 10 -120 55 -194 145 -238
l57 -28 450 0 450 0 51 27 c29 15 66 44 83 65 50 61 61 114 61 305 l0 168 120
0 120 0 0 84 c0 115 -1 116 -144 116 l-113 0 -26 39 c-15 22 -41 51 -60 65
-71 54 -85 56 -527 56 l-408 0 -54 -25 c-29 -14 -63 -25 -74 -25 -32 0 -67
-32 -99 -91 -26 -49 -29 -63 -34 -193 -6 -137 -7 -141 -31 -154 -31 -16 -116
-10 -135 9 -9 10 -15 53 -17 145 -4 118 -7 137 -32 187 -15 31 -44 70 -64 87
-71 59 -94 61 -578 58 -406 -3 -442 -4 -474 -22 -44 -23 -98 -73 -116 -108
-14 -26 -18 -28 -82 -28 l-67 1 25 20 c14 11 85 71 159 132 302 254 406 326
493 342 77 15 178 -26 423 -169 200 -118 224 -131 280 -155 32 -13 43 -15 30
-6 -74 57 -235 209 -298 283 -135 155 -199 259 -216 347 -29 153 86 380 306
605 l83 86 -124 -4 c-203 -7 -290 33 -314 144 -18 84 8 157 80 219 91 78 221
122 398 132 l105 7 -60 12 c-265 56 -776 86 -1074 63z m898 -2125 c20 -25 21
-39 21 -241 0 -214 0 -214 -25 -238 l-24 -25 -396 0 c-394 0 -426 2 -447 34
-4 6 -8 111 -8 234 0 209 1 223 20 242 19 19 33 20 429 20 l410 0 20 -26z
m1481 6 c19 -19 20 -33 20 -242 0 -123 -4 -228 -8 -234 -21 -32 -53 -34 -447
-34 l-396 0 -24 25 c-25 24 -25 24 -25 238 0 202 1 216 21 241 l20 26 410 0
c396 0 410 -1 429 -20z"/>
<path d="M1905 2831 c-53 -24 -111 -90 -125 -143 -44 -160 107 -319 263 -277
165 43 228 232 119 359 -65 76 -170 101 -257 61z m244 -88 c30 -25 42 -73 26
-109 -16 -38 -36 -54 -79 -61 -31 -5 -40 -1 -72 31 -33 33 -36 41 -31 74 8 49
46 82 96 82 22 0 48 -8 60 -17z"/>
<path d="M3019 2822 c-202 -105 -127 -413 101 -416 132 -1 247 127 224 252
-28 156 -187 236 -325 164z m265 -88 c50 -51 24 -144 -45 -159 -93 -21 -156
89 -90 156 40 39 97 41 135 3z"/>
<path d="M3422 978 c-13 -7 -42 -43 -64 -82 -125 -216 -399 -518 -598 -658
-104 -73 -271 -164 -371 -202 l-63 -24 134 -7 c197 -10 460 14 667 61 l72 16
110 111 c132 134 218 240 328 404 101 150 113 173 113 216 0 49 -31 75 -153
130 -108 48 -135 54 -175 35z"/>
</g>
</svg>
